PathFileType	4	(X/Y/Z)	 normalP072.trc
DataRate	CameraRate	NumFrames	NumMarkers	Units	OrigDataRate	OrigDataStartFrame	OrigNumFrames
100	100	8	49	M	100	150	231
Frame#	Time	RM1D			RM5D			RM2B			LM1D			LM5D			LM2B			RCAL			LCAL			RLMAL			LLMAL			RSTL			LSTL			RFLE			LFLE			RHFIB			LHFIB			RTTUB			LTTUB			RSSH			LSSH			RTL			LTL			RTAP			RTAD			LTAP			LTAD			RTPP			RTPD			LTPP			LTPD			RPSIS			LPSIS			RASIS			LASIS			T10			T2			IJ			SA			RACR			LACR			RHLE			LHLE			RUSP			LUSP			RCB			LCB			IN			LHME			RHME			
		X1	Y1	Z1	X2	Y2	Z2	X3	Y3	Z3	X4	Y4	Z4	X5	Y5	Z5	X6	Y6	Z6	X7	Y7	Z7	X8	Y8	Z8	X9	Y9	Z9	X10	Y10	Z10	X11	Y11	Z11	X12	Y12	Z12	X13	Y13	Z13	X14	Y14	Z14	X15	Y15	Z15	X16	Y16	Z16	X17	Y17	Z17	X18	Y18	Z18	X19	Y19	Z19	X20	Y20	Z20	X21	Y21	Z21	X22	Y22	Z22	X23	Y23	Z23	X24	Y24	Z24	X25	Y25	Z25	X26	Y26	Z26	X27	Y27	Z27	X28	Y28	Z28	X29	Y29	Z29	X30	Y30	Z30	X31	Y31	Z31	X32	Y32	Z32	X33	Y33	Z33	X34	Y34	Z34	X35	Y35	Z35	X36	Y36	Z36	X37	Y37	Z37	X38	Y38	Z38	X39	Y39	Z39	X40	Y40	Z40	X41	Y41	Z41	X42	Y42	Z42	X43	Y43	Z43	X44	Y44	Z44	X45	Y45	Z45	X46	Y46	Z46	X47	Y47	Z47	X48	Y48	Z48	X49	Y49	Z49	
150	1.5000	0.298505	0.042121	-0.243682	0.248781	0.024933	-0.145228	0.250034	0.060397	-0.197233	-0.351293	0.059013	-0.234133	-0.370647	0.061970	-0.331200	-0.335435	0.093443	-0.283027	0.084900	0.051607	-0.217166	-0.411584	0.236340	-0.283495	0.151127	0.078967	-0.174104	-0.369438	0.191790	-0.328349	0.133948	0.039312	-0.253326	-0.386916	0.190598	-0.246159	0.182318	0.499064	-0.134588	-0.048932	0.459146	-0.391653	0.173462	0.434285	-0.130456	-0.109478	0.424728	-0.390545	0.214474	0.430391	-0.190225	-0.057109	0.380602	-0.357046	0.202740	0.331130	-0.203393	-0.226376	0.248545	-0.315284	0.133592	0.658806	-0.085808	-0.020718	0.640332	-0.413121	0.175456	0.729726	-0.169504	0.192663	0.654743	-0.183271	0.088488	0.691020	-0.357013	0.074966	0.591677	-0.356482	0.005680	0.665193	-0.142651	0.048173	0.581161	-0.163706	-0.096630	0.646402	-0.331271	-0.094310	0.574780	-0.334476	-0.106216	1.008360	-0.181498	-0.107667	1.007982	-0.281904	0.069365	1.007472	-0.130242	0.064077	0.992412	-0.359850	-0.110043	1.202186	-0.245000	-0.059630	1.431231	-0.231286	0.100158	1.382111	-0.218597	0.108999	1.327047	-0.223310	-0.001143	1.416758	-0.020212	0.020893	1.445767	-0.427115	-0.109278	1.077702	0.008141	-0.003665	1.095219	-0.510114	-0.076030	0.813737	0.034164	0.165692	0.886376	-0.468595	0.158265	1.581512	-0.154904	0.153694	1.584027	-0.283760	-0.008142	1.506260	-0.228494	-0.039216	1.085950	-0.429797	-0.115643	1.077296	-0.080284	
151	1.5100	0.299055	0.041812	-0.243758	0.248926	0.024498	-0.144694	0.250487	0.059839	-0.196809	-0.326693	0.064780	-0.239433	-0.346231	0.069133	-0.334108	-0.311577	0.100707	-0.286147	0.085263	0.051790	-0.217136	-0.388323	0.243209	-0.285487	0.151153	0.078973	-0.174160	-0.345408	0.199195	-0.330672	0.134143	0.039293	-0.253241	-0.364278	0.197232	-0.248450	0.193228	0.498101	-0.134182	-0.021604	0.457792	-0.393718	0.183272	0.433355	-0.130007	-0.081841	0.423451	-0.393193	0.222370	0.428084	-0.189185	-0.029302	0.379769	-0.358321	0.209281	0.329716	-0.203557	-0.202931	0.251915	-0.315408	0.145548	0.658675	-0.085573	0.001061	0.638762	-0.414437	0.187815	0.729642	-0.169386	0.204805	0.654773	-0.183000	0.108230	0.692177	-0.361048	0.097810	0.592966	-0.360623	0.018802	0.665674	-0.142393	0.055747	0.581968	-0.164822	-0.073851	0.641216	-0.333153	-0.070326	0.570052	-0.335169	-0.092431	1.008903	-0.181950	-0.094315	1.007729	-0.282092	0.083616	1.008005	-0.129952	0.077261	0.992060	-0.360117	-0.096026	1.203125	-0.244606	-0.044903	1.432121	-0.230298	0.114781	1.382189	-0.218763	0.123307	1.326978	-0.223673	0.014993	1.416139	-0.019566	0.034870	1.446599	-0.426759	-0.092731	1.076849	0.008756	0.008873	1.096157	-0.509745	-0.057441	0.812907	0.033476	0.174652	0.883886	-0.470922	0.172528	1.580830	-0.154092	0.167699	1.583976	-0.282868	0.006543	1.506543	-0.227747	-0.027523	1.087158	-0.429003	-0.100089	1.076684	-0.079656	
152	1.5200	0.299394	0.041508	-0.244139	0.249137	0.024547	-0.144692	0.250894	0.059694	-0.197185	-0.297887	0.069238	-0.245374	-0.320019	0.075982	-0.338776	-0.287644	0.106922	-0.290345	0.085328	0.051938	-0.216565	-0.364976	0.248126	-0.286632	0.151356	0.078893	-0.174274	-0.322243	0.206891	-0.332764	0.134255	0.039282	-0.253290	-0.339857	0.202087	-0.250673	0.202145	0.496924	-0.133356	0.005988	0.457081	-0.395860	0.190749	0.432279	-0.128956	-0.054228	0.422807	-0.395015	0.230454	0.426047	-0.187322	-0.001337	0.379576	-0.359390	0.215359	0.328349	-0.202322	-0.178232	0.255066	-0.315183	0.155864	0.657653	-0.085289	0.022810	0.637904	-0.415305	0.199958	0.728606	-0.168362	0.216218	0.653559	-0.181249	0.128716	0.695489	-0.363380	0.120029	0.595202	-0.363401	0.030014	0.666538	-0.143943	0.069450	0.581326	-0.166732	-0.052224	0.637884	-0.333881	-0.046081	0.566679	-0.335437	-0.078769	1.009511	-0.182221	-0.081122	1.007521	-0.282073	0.097770	1.008697	-0.129806	0.090087	0.992187	-0.360696	-0.082234	1.204272	-0.244094	-0.030325	1.433175	-0.229447	0.129278	1.382400	-0.219029	0.137480	1.327096	-0.224271	0.031048	1.415627	-0.019038	0.048854	1.447423	-0.426656	-0.076044	1.075972	0.009416	0.021170	1.096889	-0.509409	-0.038541	0.812166	0.032740	0.183267	0.881326	-0.473418	0.186551	1.580464	-0.153329	0.181523	1.584376	-0.282407	0.021217	1.507446	-0.227119	-0.014732	1.087897	-0.428726	-0.084590	1.075925	-0.078934	
153	1.5300	0.299649	0.041393	-0.244076	0.249215	0.024315	-0.144439	0.251129	0.059459	-0.197043	-0.267207	0.072913	-0.251534	-0.291824	0.082452	-0.344486	-0.256304	0.114575	-0.297215	0.085557	0.052156	-0.216502	-0.339990	0.251679	-0.287491	0.152132	0.078763	-0.174396	-0.297250	0.212302	-0.334547	0.134441	0.039218	-0.253351	-0.313655	0.205629	-0.252446	0.209329	0.495642	-0.132401	0.033663	0.457672	-0.398128	0.196787	0.431278	-0.127824	-0.026997	0.423679	-0.397513	0.237659	0.424139	-0.184986	0.026695	0.380291	-0.360821	0.221496	0.326857	-0.200500	-0.152251	0.258053	-0.315373	0.161202	0.656111	-0.085229	0.043713	0.638369	-0.416265	0.212024	0.727121	-0.165846	0.227439	0.651390	-0.177864	0.146218	0.698662	-0.366004	0.142307	0.598220	-0.364569	0.040058	0.667923	-0.146019	0.079517	0.582150	-0.168013	-0.031283	0.636777	-0.333615	-0.022568	0.565687	-0.335584	-0.065190	1.010279	-0.182238	-0.068006	1.007595	-0.281724	0.111734	1.009580	-0.129784	0.102694	0.992870	-0.361332	-0.068535	1.205600	-0.243477	-0.015904	1.434419	-0.228816	0.143634	1.382970	-0.219512	0.151508	1.327441	-0.224969	0.046908	1.415404	-0.018742	0.062722	1.448272	-0.426723	-0.059165	1.075237	0.010110	0.032425	1.097383	-0.508557	-0.019150	0.811590	0.031936	0.191405	0.878801	-0.476068	0.200678	1.581035	-0.152678	0.195457	1.585860	-0.282186	0.035844	1.508581	-0.226561	-0.002071	1.088486	-0.428509	-0.069037	1.075175	-0.078212	
154	1.5400	0.299778	0.041276	-0.244172	0.249242	0.024262	-0.144405	0.251253	0.059250	-0.197080	-0.235302	0.075418	-0.257945	-0.260943	0.088159	-0.350234	-0.225634	0.119431	-0.302755	0.085699	0.052361	-0.216526	-0.313177	0.254032	-0.288220	0.152689	0.078633	-0.174586	-0.269500	0.215659	-0.336220	0.134542	0.039117	-0.253580	-0.285435	0.207942	-0.253940	0.215482	0.494381	-0.131712	0.061235	0.459552	-0.400085	0.202082	0.430316	-0.127013	0.000738	0.426080	-0.400322	0.243810	0.422291	-0.182724	0.054731	0.381983	-0.362360	0.227070	0.325263	-0.198876	-0.126928	0.259937	-0.315167	0.168778	0.655400	-0.084963	0.064360	0.640346	-0.417068	0.222665	0.724677	-0.162526	0.237589	0.648455	-0.173847	0.165623	0.702310	-0.367103	0.165120	0.601930	-0.364130	0.049400	0.669816	-0.147540	0.088260	0.583658	-0.168746	-0.010396	0.637625	-0.332739	0.001486	0.566358	-0.336149	-0.051763	1.011228	-0.181960	-0.054949	1.008189	-0.281046	0.125589	1.010748	-0.129860	0.115211	0.994197	-0.361814	-0.054983	1.207192	-0.242832	-0.001657	1.435840	-0.228327	0.157928	1.383584	-0.220115	0.165439	1.328056	-0.225809	0.062512	1.415587	-0.018711	0.076279	1.449443	-0.426872	-0.042084	1.074745	0.010777	0.044252	1.098193	-0.508195	0.000645	0.811419	0.031101	0.199097	0.876444	-0.478883	0.215024	1.582492	-0.152195	0.209614	1.588175	-0.282145	0.050310	1.509702	-0.226187	0.010396	1.089249	-0.428212	-0.053370	1.074627	-0.077390	
155	1.5500	0.299902	0.041174	-0.244318	0.249251	0.024348	-0.144455	0.251339	0.059187	-0.197376	-0.202227	0.076689	-0.264408	-0.227915	0.092963	-0.355664	-0.194706	0.122966	-0.306419	0.085823	0.052580	-0.216562	-0.285232	0.254794	-0.288686	0.152903	0.078603	-0.174832	-0.240327	0.218067	-0.337528	0.134553	0.039107	-0.253606	-0.255528	0.208840	-0.254924	0.221161	0.493166	-0.131437	0.088845	0.462485	-0.401768	0.206982	0.429409	-0.126551	0.029228	0.428658	-0.401848	0.249079	0.420561	-0.181174	0.083081	0.384445	-0.364088	0.231739	0.323587	-0.197609	-0.095706	0.262494	-0.318165	0.176052	0.654736	-0.085075	0.085252	0.643042	-0.417524	0.233467	0.721892	-0.159191	0.246514	0.645519	-0.170671	0.187074	0.708024	-0.365137	0.188324	0.606395	-0.362586	0.058394	0.671864	-0.148500	0.095168	0.585381	-0.169526	0.011052	0.638778	-0.332037	0.026126	0.567411	-0.337071	-0.038354	1.012367	-0.181380	-0.041910	1.009256	-0.280238	0.139228	1.012109	-0.130003	0.127752	0.996105	-0.362092	-0.041540	1.208988	-0.242176	0.012446	1.437475	-0.227928	0.171965	1.384541	-0.220850	0.179236	1.328898	-0.226745	0.077850	1.416222	-0.018825	0.089551	1.450880	-0.427013	-0.024858	1.074635	0.011378	0.055873	1.099313	-0.507801	0.023886	0.812145	0.030823	0.206245	0.874332	-0.481865	0.229638	1.584441	-0.152090	0.224059	1.590929	-0.282107	0.064474	1.510791	-0.226024	0.022719	1.090349	-0.427839	-0.037499	1.074408	-0.076634	
156	1.5600	0.299987	0.041105	-0.244392	0.249254	0.024352	-0.144484	0.251404	0.059080	-0.197474	-0.168379	0.076705	-0.270116	-0.193538	0.096550	-0.360814	-0.162114	0.125479	-0.309970	0.085942	0.052783	-0.216604	-0.257123	0.253743	-0.288476	0.153221	0.078644	-0.175042	-0.210288	0.219196	-0.338835	0.134594	0.039060	-0.253713	-0.226071	0.207407	-0.256100	0.226483	0.491997	-0.131527	0.116707	0.466033	-0.403102	0.211861	0.428890	-0.126338	0.058169	0.431480	-0.402630	0.253636	0.419016	-0.180463	0.112014	0.387692	-0.365534	0.235659	0.322084	-0.196736	-0.064000	0.265756	-0.321203	0.183512	0.654256	-0.085348	0.107079	0.645851	-0.417871	0.243612	0.719611	-0.157165	0.254662	0.643389	-0.169064	0.204243	0.710581	-0.365754	0.211324	0.611558	-0.360699	0.067254	0.673879	-0.149639	0.103094	0.586241	-0.169797	0.033156	0.639486	-0.331877	0.050369	0.568833	-0.337712	-0.025128	1.013831	-0.180780	-0.028773	1.010802	-0.279412	0.152718	1.013665	-0.129977	0.140375	0.998386	-0.362066	-0.028114	1.210961	-0.241528	0.026440	1.439282	-0.227599	0.185971	1.385767	-0.221664	0.192877	1.330066	-0.227753	0.092974	1.417348	-0.019074	0.102469	1.452614	-0.427183	-0.007638	1.074962	0.011836	0.066166	1.100932	-0.507545	0.043374	0.812762	0.029717	0.212802	0.872595	-0.485012	0.244141	1.586302	-0.152469	0.237481	1.593417	-0.281775	0.078490	1.512128	-0.226099	0.034829	1.091978	-0.427361	-0.021590	1.074750	-0.076057	
157	1.5700	0.300057	0.041034	-0.244552	0.249318	0.024488	-0.144638	0.251504	0.059072	-0.197770	-0.131506	0.076569	-0.276554	-0.157026	0.098750	-0.366272	-0.127338	0.126841	-0.314041	0.086020	0.053003	-0.216686	-0.227380	0.250678	-0.289603	0.153646	0.078543	-0.175313	-0.179459	0.218954	-0.340360	0.134938	0.039174	-0.254219	-0.196135	0.204274	-0.256971	0.231443	0.491126	-0.131787	0.144665	0.470047	-0.404209	0.216441	0.428323	-0.126660	0.087272	0.434660	-0.403473	0.257600	0.417757	-0.180419	0.141166	0.391490	-0.366582	0.238903	0.321050	-0.196247	-0.033228	0.267405	-0.322799	0.190530	0.654015	-0.085892	0.129802	0.649052	-0.418247	0.252940	0.718511	-0.156617	0.262424	0.642420	-0.169357	0.226452	0.717099	-0.361901	0.233563	0.617015	-0.358979	0.075919	0.675932	-0.151000	0.109661	0.587458	-0.170833	0.055324	0.640261	-0.332130	0.074863	0.570647	-0.338478	-0.011759	1.015499	-0.180151	-0.015587	1.012843	-0.278745	0.165998	1.015262	-0.129704	0.153159	1.000960	-0.361848	-0.014672	1.213027	-0.240883	0.040295	1.441237	-0.227389	0.199606	1.387319	-0.222600	0.206411	1.331621	-0.228796	0.107852	1.418887	-0.019407	0.115005	1.454664	-0.427383	0.009494	1.075770	0.012114	0.077195	1.103023	-0.507167	0.063192	0.813984	0.028575	0.218796	0.871267	-0.488236	0.258992	1.588453	-0.153276	0.252504	1.595479	-0.282045	0.092355	1.513946	-0.226313	0.046736	1.094218	-0.426817	-0.005557	1.075524	-0.075617	
